<svg xmlns="http://www.w3.org/2000/svg" width="266" height="80"><rect width="100%" height="100%" fill="none"/><defs><clipPath id="c"><path d="M0 156.451h358V0H0v156.451z"/></clipPath><clipPath id="d"><path d="M114.736 109.424c0-11.778 9.521-21.223 21.157-21.223v21.223h-21.157z"/></clipPath><clipPath id="a"><path d="M-32768 32767h65535v-65535h-65535v65535z"/></clipPath><linearGradient id="b" x1=".5018" x2=".5021" y1=".5017" y2=".5014"><stop offset="0" stop-color="#fff" stop-opacity="0"/><stop offset="1" stop-color="#fff"/></linearGradient><mask id="e" width="1" height="1" x="0" y="0" maskUnits="userSpaceOnUse"><g clip-path="url(#a)"><path fill="url(#b)" d="M-32768 32767h65535v-65535h-65535v65535z"/></g></mask><linearGradient id="f" x1=".1463" x2="1.1463" y1="-.1464" y2=".8536"><stop offset="0" stop-color="#82bc00"/><stop offset="1" stop-color="#82bc00"/></linearGradient></defs><g class="currentLayer"><g clip-path="url(#c)"><path fill="#4f008c" d="M115.5699 45.3651v-13h6.4787V25.734H115.57v-8.0925h-8.1988v8.0925h-4.495v6.6312h4.495v14.0613c0 6.6325 3.835 9.55 9.785 9.55 2.2488 0 4.2325-.3975 5.29-.9275v-7.2963c-.9262.6638-2.38 1.0613-3.57 1.0613-1.9837-.1325-3.3062-1.1938-3.3062-3.4488m26.0495 9.9485l4.8925-18.1725 4.8925 18.1725h7.5375l8.9912-29.58h-7.9337l-5.2888 18.835-5.025-18.835h-6.215l-4.8925 18.835-5.2887-18.835h-8.1988l8.9913 29.58h7.5375zm30.6771-29.5797h8.1987v29.7125h-8.1987V25.7339zm30.8102 12.0704l-6.0825-1.4588c-1.8512-.5312-2.645-1.1937-2.645-2.3875 0-1.8575 1.9838-2.7862 3.9675-2.7862 2.7763 0 4.0988 1.3262 4.6275 2.9187h7.8025c-1.0587-5.5712-5.1575-9.1525-12.5625-9.1525-6.6112 0-11.7687 3.8463-11.7687 9.6825 0 5.0413 3.1737 7.2963 7.67 8.3575l5.95 1.3263c2.1162.53 3.0412 1.1937 3.0412 2.52 0 1.99-1.7187 2.9187-4.2312 2.9187s-4.3638-1.1937-5.025-3.3162h-8.1988c.9263 6.1012 5.9513 9.55 13.2238 9.55 6.8762 0 12.165-3.5813 12.165-9.6825 0-4.3775-2.7763-7.2963-7.9338-8.49m23.405 7.5608v-13h6.4787V25.734h-6.4788v-8.0925h-8.1987v8.0925h-4.495v6.6312h4.495v14.0613c0 6.6325 3.835 9.55 9.785 9.55 2.2487 0 4.2325-.3975 5.29-.9275v-7.2963c-.9263.6638-2.38 1.0613-3.57 1.0613-2.1163-.1325-3.3063-1.1938-3.3063-3.4488m24.4628 2.653c-4.0988 0-7.5375-3.4487-7.5375-7.5612 0-4.1113 3.4387-7.56 7.5375-7.56 4.0987 0 7.5375 3.4487 7.5375 7.56 0 4.1125-3.4388 7.5612-7.5375 7.5612m0-22.9475c-8.595 0-15.4713 6.8975-15.4713 15.5188 0 8.6225 6.8763 15.52 15.4713 15.52s15.4712-6.8975 15.4712-15.52c0-8.6213-6.8762-15.5188-15.4712-15.5188M176.396 13.53c2.2638 0 4.0988 1.8413 4.0988 4.1125 0 2.27-1.835 4.1113-4.0988 4.1113s-4.0987-1.8413-4.0987-4.1113c0-2.2712 1.835-4.1125 4.0987-4.1125M26.4462 26.5294V79.588h26.4463V.0006H0v26.5288h26.4462z"/><path fill="#009d4e" d="M52.8925 0c0 14.7238 11.9012 26.5288 26.4462 26.5288V0H52.8925z"/></g><g stroke-width="0" clip-path="url(#d)" mask="url(#e)"><path fill="url(#f)" d="M52.8927.0001c0 14.7225 11.9013 26.5288 26.4463 26.5288V0H52.8927z"/></g></g></svg>
