<?xml version="1.0" encoding="utf-8"?>
<!-- Generator: Adobe Illustrator 27.2.0, SVG Export Plug-In . SVG Version: 6.00 Build 0)  -->
<svg version="1.1" id="Warstwa_1" xmlns="http://www.w3.org/2000/svg" xmlns:xlink="http://www.w3.org/1999/xlink" x="0px" y="0px"
	 viewBox="0 0 99.2 96.8" style="enable-background:new 0 0 99.2 96.8;" xml:space="preserve">
<style type="text/css">
	.st0{fill-rule:evenodd;clip-rule:evenodd;}
	.st1{fill-rule:evenodd;clip-rule:evenodd;fill:#FFFFFF;}
</style>
<polygon class="st0" points="87.9,36 87.9,36 87.9,36 "/>
<path class="st1" d="M99,44.3c-1.8,0-3.5-0.5-5.1-1.2l0,0c-0.7-0.3-1.4-0.8-2-1.2c-0.1,0-0.1-0.1-0.2-0.1c-0.2-0.2-0.4-0.3-0.6-0.5
	c-0.2-0.2-0.3-0.3-0.5-0.5c0,0-0.1-0.1-0.1-0.1c-1.2-1.3-2.2-2.9-2.7-4.7l0,0c0,0,0,0-0.1,0l0,0c-1.1,0.2-2.2,0.3-3.4,0.3
	c-10.3,0-18.6-8.3-18.6-18.6c0-1.1,0.1-2.2,0.3-3.3c-4.8-1.4-8.4-5.7-8.6-10.9c0,0,0,0,0,0c0-0.1,0-0.3,0-0.4c0-0.9,0.1-1.8,0.3-2.7
	C56,0.2,54,0,52,0c-8.5,0-16.4,2.2-23.3,6.2C11.8,13.4,0,30.1,0,49.6c0,26.1,21.1,47.2,47.2,47.2c8.5,0,16.5-2.3,23.4-6.2
	c16.8-7.2,28.6-23.9,28.6-43.4C99.2,46.2,99.1,45.3,99,44.3z M35,26.1c1.8,0,3.2,1.5,3.2,3.2s-1.5,3.2-3.2,3.2s-3.2-1.5-3.2-3.2
	S33.2,26.1,35,26.1z M20.8,46.6c-2.1,0-3.9-1.7-3.9-3.9s1.7-3.9,3.9-3.9s3.9,1.7,3.9,3.9S23,46.6,20.8,46.6z M35,76.1
	c-4.2,0-7.6-3.4-7.6-7.6s3.4-7.6,7.6-7.6s7.6,3.4,7.6,7.6S39.2,76.1,35,76.1z M44.2,19c0-3.9,3.2-7.1,7-7.1s7,3.2,7,7.1s-3.2,7-7,7
	S44.2,22.9,44.2,19z M52,38.1c0-1.5,1.2-2.8,2.8-2.8s2.8,1.2,2.8,2.8s-1.2,2.8-2.8,2.8S52,39.7,52,38.1z M56.6,82.5
	c-1.8,0-3.2-1.4-3.2-3.2s1.5-3.2,3.2-3.2s3.2,1.4,3.2,3.2S58.4,82.5,56.6,82.5z M58.3,63c-2.7,0-4.8-2.2-4.8-4.8s2.2-4.8,4.8-4.8
	s4.8,2.2,4.8,4.8S60.9,63,58.3,63z M77.3,68.5c-2.1,0-3.9-1.7-3.9-3.9s1.7-3.9,3.9-3.9s3.9,1.7,3.9,3.9
	C81.2,66.8,79.5,68.5,77.3,68.5z M76.6,53.4c-4.2,0-7.6-3.4-7.6-7.6s3.4-7.6,7.6-7.6s7.6,3.4,7.6,7.6S80.8,53.4,76.6,53.4z"/>
</svg>
